<svg xmlns="http://www.w3.org/2000/svg" fill="none" viewBox="0 0 282 458"><path fill="#fff" d="M140.893 347.183c45.089 0 81.77-36.681 81.77-81.765V81.765C222.663 36.676 185.982 0 140.893 0S59.128 36.676 59.128 81.765v183.657c0 45.084 36.676 81.761 81.765 81.761z"/><path fill="#fff" d="M272.314 216.54h-16.28c-5.229 0-9.473 4.244-9.473 9.473v33.294c0 58.262-47.405 105.667-105.672 105.667-58.266 0-105.662-47.405-105.662-105.667v-33.294c0-5.229-4.244-9.473-9.473-9.473H9.474c-5.23 0-9.474 4.244-9.474 9.473v33.294c0 69.663 54.155 131.051 123.278 139.762v23.589H50.569c-5.23 0-9.473 4.244-9.473 9.473v16.276c0 5.229 4.244 9.473 9.473 9.473h180.649c5.23 0 9.474-4.244 9.474-9.473v-16.276c0-5.229-4.244-9.473-9.474-9.473h-72.713v-23.589c69.128-8.706 123.278-70.099 123.278-139.762v-33.294c.005-5.234-4.239-9.473-9.469-9.473z"/></svg>