<svg xmlns="http://www.w3.org/2000/svg" fill="none" viewBox="0 0 449 395"><path fill="rgba(255, 255, 255, 0.75)" d="M435.776 109.148c-7.766-4.802-17.753-5.239-25.905-1.157l-67.486 33.603v-36.381c0-14.542-11.432-25.99-25.974-25.99H158.462L99.502 9.376C90.118-1.72 73.519-3.207 62.397 6.198 51.3 15.592 49.91 32.168 59.31 43.27l289.656 342.3c5.207 6.152 12.627 9.311 20.11 9.311 6.004 0 12.048-2.05 16.998-6.235 11.096-9.393 12.312-26.014 2.913-37.117l-46.602-54.872v-17.164l67.385 33.603c3.717 1.857 7.847 2.777 11.871 2.777 4.809 0 9.861-1.318 14.092-3.935 7.753-4.795 12.729-13.269 12.729-22.397V131.546c0-9.13-4.933-17.602-12.686-22.398zM0 105.217v210.659c0 14.542 12.193 26.388 26.735 26.388h224.878L25.768 78.99C11.593 79.404 0 90.936 0 105.217z"/></svg>