<svg xmlns="http://www.w3.org/2000/svg" fill="none" viewBox="0 0 372 458"><path fill="rgba(255, 255, 255, 0.75)" d="M104.153 265.423v-60.09l127.683 127.692c-13.102 8.929-28.913 14.158-45.923 14.158-45.084 0-81.76-36.676-81.76-81.76z"/><path fill="rgba(255, 255, 255, 0.75)" d="M54.498 216.54h16.285c5.23 0 9.473 4.244 9.473 9.473v33.294c0 58.262 47.401 105.667 105.667 105.667 22.045 0 42.531-6.797 59.489-18.388l24.844 24.844c-19.122 14.608-41.949 24.522-66.722 27.639v23.589h72.709c5.229 0 9.473 4.244 9.473 9.473v16.276c0 5.229-4.244 9.473-9.473 9.473H95.593c-5.228 0-9.472-4.244-9.472-9.473v-16.276c0-5.229 4.244-9.473 9.473-9.473h72.713v-23.589C99.18 390.363 45.03 328.97 45.03 259.307v-33.294c-.005-5.234 4.239-9.473 9.468-9.473zM7.634 36.444c10.165-10.17 26.672-10.17 36.837 0l59.683 59.683V81.765C104.154 36.676 140.83 0 185.919 0s81.765 36.676 81.765 81.765v177.883l21.562 21.561c1.501-7.071 2.34-14.39 2.34-21.902v-33.294c0-5.23 4.244-9.474 9.473-9.474h16.28c5.23 0 9.474 4.244 9.474 9.474v33.294c0 17.384-3.439 34.232-9.578 49.892l46.974 46.969c10.174 10.175 10.174 26.673 0 36.847-5.083 5.082-11.752 7.626-18.421 7.626a25.983 25.983 0 01-18.421-7.626L7.638 73.287C-2.546 63.111-2.546 46.618 7.634 36.443z"/></svg>