<svg xmlns="http://www.w3.org/2000/svg" fill="none" viewBox="0 0 646 725" width="100"><path fill="#DBEEF9" d="M267.765 59.751c-.5-.4-2.4-1.2-4.3-1.9-16.8-5.6-39.6 2.1-51 17.1-3 4-18.9 28.7-25.4 39.5-.5.8 1.9 2.6 7.4 5.4 14.4 7.2 33.1 19.6 110.8 73.7l27.5 19 4.8-2.4c2.6-1.3 4.8-2.8 4.8-3.2 0-.4-13.2-13.8-29.4-29.7-30.1-29.6-35.1-35.5-41.2-49-7.6-16.5-9.8-40.1-5.4-58.3 1.2-5.2 1.8-9.7 1.4-10.2z"/><path fill="#fff" d="M218.517 152.15c-28.1-19-45.9-27.5-67.8-32.5-12.9-3-38.2-3.6-40.9-.9-1 .9-1.1 20-.2 25.5 4.5 25.8 15.6 47 35.4 67.8 6.8 7.1 7.6 7.4 10.9 3.6 1.5-1.8 3.5-4.6 4.6-6.3 3-4.9 30.4-31.7 38.7-37.9 8.6-6.4 12.7-7.3 15.3-3.5 2.6 3.7 2 7.4-1.6 10.6-31.5 27.9-51.3 50.1-66.6 74.8-9.2 14.7-18.1 34.2-19.7 42.9-.4 2.2-1 4.4-1.5 5-1.6 2-4 20.2-4 30.4 0 5.8.7 13.7 1.5 17.6 1.6 7.4 5.3 17.5 6.4 17.5.4 0 2 2.6 3.6 5.7 4.4 8.6 20.4 24.1 34.5 33.5 38.9 25.9 93.3 41.5 156 44.8 19 1 46.5.1 63.7-2 53.7-6.7 96.8-24.1 121.5-49.1 4.9-4.8 8.8-9.4 8.8-10.1 0-.7 1.4-3.1 3-5.3 1.7-2.1 4.5-8.2 6.2-13.5 3.198-9.394 3.2-9.8 3.3-28.962v-.038c0-16.4-.3-20.5-1.9-25.5-1-3.3-2-7.4-2.2-9-.9-7.3-9.6-29.3-17-43-12-22.4-28.8-45.6-48.3-66.8-8.7-9.4-9.7-12.1-6.1-15.7 1.1-1.1 3.3-2 5.1-2 3.8 0 11.5 6.7 22.6 19.7 7.3 8.5 21.3 26.7 21.3 27.7s6.3 10.6 7 10.6c1.3 0 15.5-12.7 22.5-20.1 17.3-18.3 28.5-43.1 30.2-66.5l.6-8.1-5-1.2c-26.4-6.4-59.9-.8-92.8 15.4-7.1 3.5-26.5 13.6-43 22.5s-33.8 18.2-38.5 20.8c-4.7 2.5-17.5 9.5-28.5 15.5s-21.6 11.1-23.7 11.4c-3.3.5-4.9-.4-21.5-11.9-35.8-25-71.3-49.5-91.9-63.4zM258.933 457.4c-14.6-2.9-36.7-9.1-46.4-12.9-3.6-1.4-6.7-2.5-7-2.5-1.7 0-24.5 11.2-30.2 14.8-19.3 12.2-22 37.8-5.4 50.4 12.8 9.7 26.7 9.2 48-1.4 10.3-5.2 13.5-7.6 13.5-10.1 0-4 3-13.9 5.1-16.8 2.6-3.6 7.8-4 11-.8 2.3 2.3 2.2 3.4-.6 12.9-1.4 4.6-1.6 8.8-1.1 25.5.5 21.8 2.1 31.6 7.5 47.8 13.4 39.5 50.9 74.3 102.2 94.7 20.7 8.3 40.9 12 65.2 12 21.1 0 35.8-2.1 57.7-8.1 30.3-8.3 50-8 68.1 1.2 9.8 4.9 20.6 16.4 26 27.5 2.3 4.9 4.4 9.1 4.6 9.4 2 2.3 13.8-22.1 16.3-33.9 2.6-11.6 2.8-30.7.6-43.1-4.1-22.7-15-44.7-29-58.3-6.7-6.5-16.6-13.8-17.7-13.1-.5.3-.9 3.5-.9 7.2-.1 24.9-16.2 46.3-45.4 60.3-7.5 3.6-9 4-16.7 4.1-13.5.1-20.4-3.8-26.1-14.9-6.1-11.8-6.6-16.6-5.8-55.3.3-14.3.1-17.6-1.7-25-2.6-10.2-6.6-21.7-10.1-28.5-4.2-8.3-14.2-22.6-20.9-29.7-3.5-3.7-6.3-7.4-6.3-8.2 0-.8-.5-1.8-1-2.1-.6-.4-7.7.3-15.8 1.4-20.2 2.8-22.9 3-46.2 3.7-28.9 1-59.5-1.8-91.5-8.2z"/><path fill="#DBEEF9" d="M547.237 560.247c-.1 24.9-16.4 46.3-45.6 60.3C522 628 524.5 642 517.499 657c10.001 0 13.001 1.5 15.501 2s7.664 2.26 14.237 5.547c9.8 4.9 20.6 16.4 26 27.5 2.3 4.9 4.6 9.1 4.8 9.4 2 2.3 13.5-22.1 16-33.9 2.6-11.6 3-30.7.8-43.1-4.1-22.7-15.2-44.7-29.2-58.3-6.7-6.5-16.5-13.8-17.6-13.1-.5.3-.8 3.5-.8 7.2zM561 269.136c-7.3-14.3-14.5-28.2-16-31-1.4-2.7-3-5-3.5-5.1-.5-.2-4.1 2.5-8 5.9-3.9 3.4-8.8 7.6-11 9.3l-3.9 3.1 5.2 10.4c17.3 34.7 24.3 64.8 21.5 92.2-3.4 31.9-16 52.7-44.3 72.4l-6 4.1 6.8 2.3c15.3 5 21.2 8.8 28.4 18.4 11 14.6 12 36.2 2.3 50.8-1.4 2.1-2.3 4.1-2 4.4.9.9 7.4-1.8 13.3-5.6 7.8-5 13.8-12 18.1-21.1 2-4.1 4.3-8.1 5.2-8.8 1.1-.9 3.8-1 9.5-.6 10.4.8 18.2-.7 27.4-5.2 20.3-10 31.4-32.7 27.1-55.5-1.1-5.6-6.1-16.3-25.3-53.4-27.1-52.6-32.1-62.4-44.8-87zM138.031 241.226c3.4-5.1 6-9.7 5.8-10.1-.2-.5-4.6-5.4-9.9-11l-9.7-10.1-50.9 77.8c-28 42.7-51.7 78.9-52.6 80.3-5.8 9.5-7.5 26.9-3.7 39.1 6.5 21 26.7 35.8 48.8 35.8 3.5 0 7.2.4 8.2 1 1 .6 2.6 3.8 3.9 7.8 5.4 17.8 20.7 31.7 38.9 35.3 6.9 1.3 18.4.7 24.5-1.2 3.2-1.1 3.7-1.6 3.7-4.4 0-4.5 2.7-13.1 6.3-19.8 4.3-8.2 12.4-15.2 25.2-21.9l10.8-5.6-6.9-3.5c-15-7.6-36.3-23-46.2-33.6-19.4-20.6-26.4-37.9-26.4-65.6 0-7.8.6-16.8 1.6-22.5 3.5-19.9 14.9-47 28.6-67.8zM474.383 95.736c-8.5-12-23.5-21.9-37.7-24.9-24.6-5.2-46.2.8-63.3 17.8-23.1 22.9-24.5 51.9-3.8 84.4 5.2 8.1 9.4 13.2 11 13.2.7 0 17.4-8.6 37.1-19.2 41.7-22.3 50.4-26.6 63.2-31.2 5.6-2 9.6-4 9.8-4.9.5-2.5-11.5-28.5-16.3-35.2z"/><path fill="#fff" d="M514.765 453.534c-4.7-4.5-15-8.8-30.3-12.6-4.5-1.1-8.5-2-9-1.9-.4 0-3.7 1.4-7.1 3-5 2.3-22.9 8.3-40.1 13.5-.9.3.5 2.4 4.1 6.2 5.9 6.2 15.5 20 21 30.2l3.5 6.5 8.4 2.8c10.1 3.4 26.8 6.1 32.6 5.2 6.5-.9 15.8-6.1 20.3-11.2 10.3-11.7 8.8-29.8-3.4-41.7z"/><path fill="#DBEEF9" d="M407.4 35.397c-11.2-10.6-22.6-16.6-37.1-19.6-13.9-2.8-25.3-2.3-38.3 1.6-20.2 6.2-36.9 20.3-46.1 39-6.3 12.9-7.9 19.6-7.9 34.5 0 13.3 1.1 19.5 5.2 29.5 5 11.8 10.4 18.3 40.6 48.4 16.2 16.1 30.1 29.7 30.8 30.1 1.2.8 7.5-1.8 10.6-4.2.9-.7-.3-2.9-4.2-8.4-10.5-14.7-18-32.2-20.6-47.9-2.7-16.8 3.6-38.1 15.7-53.2 2.6-3.2 5.4-6.5 6.3-7.3 13.7-13.3 32.5-21.8 51.9-23.6 3.9-.4 7.2-.9 7.2-1.2 0-1.4-9.5-13.4-14.1-17.7z"/><path stroke="#9BCFE4" stroke-linecap="round" stroke-width="12" d="M528.186 403.258l38.047 66.581"/><path stroke="#9BCFE4" stroke-linecap="round" stroke-width="9" d="M546.944 609.706l38.762-28.65M552.583 647.584l45.001.833"/><path stroke="#9BCFE4" stroke-linecap="round" stroke-width="12" d="M123.641 374.349l-48.316 72.034"/><path fill="#254873" d="M336.5 1.5c-22.2 5.1-42.1 17.7-54.4 34.5-3.1 4.2-6 8.5-6.6 9.4-.9 1.6-1.4 1.5-7-.5-5-1.9-8-2.3-18-2.3-10.5 0-13 .4-19.8 2.7-4.3 1.5-10.3 4.3-13.4 6.3-11.8 7.5-15.5 12.2-37.4 46.6-4.1 6.5-8.1 11.8-8.9 11.8-.8 0-4.4-.9-8-2-12.5-3.8-25-5.3-39.8-4.7-16.2.6-22.7 2-24.8 5.2-.8 1.2-2 6.4-2.6 11.5-2.6 21.1 4.4 51.9 16.3 71.3 1.6 2.6 2.9 5.1 2.9 5.6s-2.2 4.2-4.8 8.3c-2.7 4-9.2 13.8-14.4 21.8-5.2 8-24.2 37-42.3 64.5-42 64-42.7 65.2-45.8 70.5-7.3 12.9-9.4 33.3-4.8 48 3.7 12 7.7 18.7 17.1 28.1 12.1 12.2 19.2 15.5 42.6 19.5 1.4.2 2.7 1.8 3.8 4.8 6.2 16.1 21.5 30.3 39.6 36.8 5.5 1.9 8.7 2.3 20.8 2.4l14.3.2 3.8 5.9c8 12.4 21.1 22.3 35.6 26.9 11.7 3.8 26.7 3.7 38.5-.1l8.5-2.7 3 3.5c2.4 2.8 3.3 5.1 4.3 11.7 1.8 11.2 8.3 30.8 13.5 40.2 19.7 36.2 55.2 65.8 100.8 84.3 24 9.7 45.2 13.7 72.4 13.7 22.4 0 38.2-2.2 63.5-9.1 18.6-5 33.2-6.2 43.5-3.6 19.6 5.1 31.5 18.2 37.4 41 1.1 4.5 2.8 8.5 3.7 9.2 3.7 2.7 6.9 1.6 12.8-4.6 23.8-24.3 33.2-60.2 26-98.3-7-37-28.3-67.7-57.1-82.3-9.1-4.6-13.1-5.3-16.2-2.8-2.2 1.8-2.3 2.5-2.5 17.8-.2 18.6-1.5 23.2-9.3 33.6-9 11.9-27.3 23-39.4 23.7-6.3.4-6.7.3-9.7-2.8-6.7-6.7-8.5-19.7-6.8-48.3l.9-14.9 6.3-3.9c3.4-2.2 9.2-7.1 12.9-11l6.6-7.1 8.2.3c23.9.7 32.3-.7 45.2-7.4 7.5-4 21.1-17.2 25.3-24.8l3.2-5.6 9.7-.6c23.7-1.4 43.4-14.7 54.3-36.5 4.1-8.4 6-17 6-28.2 0-16.1-1-18.7-26.5-68-5.9-11.3-16.7-32.2-24-46.5-7.4-14.3-18.4-35.7-24.5-47.5-6.1-11.8-12.9-25.1-15.2-29.5l-4-8.1 5.5-8.4c10.3-16 16.2-30.5 19.2-47.4 1.7-10.3 2-25.8.4-28.8-3.6-6.7-33-11.4-55.4-8.8-6 .7-12.1 1.3-13.3 1.4-2.1.1-3.1-1.6-9.3-15.9-7.6-17.4-11.6-24.1-19.3-32.4-9-9.5-24.3-18.8-36.1-22-3.5-.9-4.4-1.8-6.4-5.8-11.2-23.2-33.5-41.7-58.3-48.5-9.5-2.6-33.5-3.4-42.3-1.3zm34.3 14.4c14.5 3 25.9 9 37.1 19.6 4.6 4.3 14.1 16.3 14.1 17.7 0 .3-3.3.8-7.2 1.2-19.4 1.8-38.2 10.3-51.9 23.6-.9.8-3.7 4.1-6.3 7.3-12.1 15.1-18.4 36.4-15.7 53.2 2.6 15.7 10.1 33.2 20.6 47.9 3.9 5.5 5.1 7.7 4.2 8.4-3.1 2.4-9.4 5-10.6 4.2-.7-.4-14.6-14-30.8-30.1-30.2-30.1-35.6-36.6-40.6-48.4-4.1-10-5.2-16.2-5.2-29.5 0-14.9 1.6-21.6 7.9-34.5 9.2-18.7 25.9-32.8 46.1-39 13-3.9 24.4-4.4 38.3-1.6zM263.1 58.1c1.9.7 3.8 1.5 4.3 1.9.4.5-.2 5-1.4 10.2-4.4 18.2-2.2 41.8 5.4 58.3 6.1 13.5 11.1 19.4 41.2 49 16.2 15.9 29.4 29.3 29.4 29.7 0 .4-2.2 1.9-4.8 3.2l-4.8 2.4-27.5-19c-77.7-54.1-96.4-66.5-110.8-73.7-5.5-2.8-7.9-4.6-7.4-5.4 6.5-10.8 22.4-35.5 25.4-39.5 11.4-15 34.2-22.7 51-17.1zm173.7 12.5c14.2 3 29.2 12.9 37.7 24.9 4.8 6.7 16.8 32.7 16.3 35.2-.2.9-4.2 2.9-9.8 4.9-12.8 4.6-21.5 8.9-63.2 31.2-19.7 10.6-36.4 19.2-37.1 19.2-1.6 0-5.8-5.1-11-13.2-20.7-32.5-19.3-61.5 3.8-84.4 17.1-17 38.7-23 63.3-17.8zm-285.2 49.3c21.9 5 39.7 13.5 67.8 32.5 20.6 13.9 56.1 38.4 91.9 63.4 16.6 11.5 18.2 12.4 21.5 11.9 2.1-.3 12.7-5.4 23.7-11.4s23.8-13 28.5-15.5c4.7-2.6 22-11.9 38.5-20.8s35.9-19 43-22.5c32.9-16.2 66.4-21.8 92.8-15.4l5 1.2-.6 8.1c-1.7 23.4-12.9 48.2-30.2 66.5-7 7.4-21.2 20.1-22.5 20.1-.7 0-7-9.6-7-10.6s-14-19.2-21.3-27.7c-11.1-13-18.8-19.7-22.6-19.7-1.8 0-4 .9-5.1 2-3.6 3.6-2.6 6.3 6.1 15.7 19.5 21.2 36.3 44.4 48.3 66.8 7.4 13.7 16.1 35.7 17 43 .2 1.6 1.2 5.7 2.2 9 1.6 5 1.9 9.1 1.9 25.5-.1 19.2-.1 19.6-3.3 29-1.7 5.3-4.5 11.4-6.2 13.5-1.6 2.2-3 4.6-3 5.3 0 .7-3.9 5.3-8.8 10.1-24.7 25-67.8 42.4-121.5 49.1-17.2 2.1-44.7 3-63.7 2-62.7-3.3-117.1-18.9-156-44.8-14.1-9.4-30.1-24.9-34.5-33.5-1.6-3.1-3.2-5.7-3.6-5.7-1.1 0-4.8-10.1-6.4-17.5-.8-3.9-1.5-11.8-1.5-17.6 0-10.2 2.4-28.4 4-30.4.5-.6 1.1-2.8 1.5-5 1.6-8.7 10.5-28.2 19.7-42.9 15.3-24.7 35.1-46.9 66.6-74.8 3.6-3.2 4.2-6.9 1.6-10.6-2.6-3.8-6.7-2.9-15.3 3.5-8.3 6.2-35.7 33-38.7 37.9-1.1 1.7-3.1 4.5-4.6 6.3-3.3 3.8-4.1 3.5-10.9-3.6-19.8-20.8-30.9-42-35.4-67.8-.9-5.5-.8-24.6.2-25.5 2.7-2.7 28-2.1 40.9.9zm-7.8 111.2c.2.4-2.4 5-5.8 10.1-13.7 20.8-25.1 47.9-28.6 67.8-1 5.7-1.6 14.7-1.6 22.5 0 27.7 7 45 26.4 65.6 9.9 10.6 31.2 26 46.2 33.6l6.9 3.5-10.8 5.6c-12.8 6.7-20.9 13.7-25.2 21.9-3.6 6.7-6.3 15.3-6.3 19.8 0 2.8-.5 3.3-3.7 4.4-6.1 1.9-17.6 2.5-24.5 1.2-18.2-3.6-33.5-17.5-38.9-35.3-1.3-4-2.9-7.2-3.9-7.8-1-.6-4.7-1-8.2-1-22.1 0-42.3-14.8-48.8-35.8-3.8-12.2-2.1-29.6 3.7-39.1.9-1.4 24.6-37.6 52.6-80.3l50.9-77.8 9.7 10.1c5.3 5.6 9.7 10.5 9.9 11zm401.1 6.4c1.5 2.8 8.7 16.7 16 31 12.7 24.6 17.7 34.4 44.8 87 19.2 37.1 24.2 47.8 25.3 53.4 4.3 22.8-6.8 45.5-27.1 55.5-9.2 4.5-17 6-27.4 5.2-5.7-.4-8.4-.3-9.5.6-.9.7-3.2 4.7-5.2 8.8-4.3 9.1-10.3 16.1-18.1 21.1-5.9 3.8-12.4 6.5-13.3 5.6-.3-.3.6-2.3 2-4.4 9.7-14.6 8.7-36.2-2.3-50.8-7.2-9.6-13.1-13.4-28.4-18.4l-6.8-2.3 6-4.1c28.3-19.7 40.9-40.5 44.3-72.4 2.8-27.4-4.2-57.5-21.5-92.2l-5.2-10.4 3.9-3.1c2.2-1.7 7.1-5.9 11-9.3 3.9-3.4 7.5-6.1 8-5.9.5.1 2.1 2.4 3.5 5.1zM484.3 442c15.3 3.8 25.6 8.1 30.3 12.6 12.2 11.9 13.7 30 3.4 41.7-4.5 5.1-13.8 10.3-20.3 11.2-5.8.9-22.5-1.8-32.6-5.2l-8.4-2.8-3.5-6.5c-5.5-10.2-15.1-24-21-30.2-3.6-3.8-5-5.9-4.1-6.2 17.2-5.2 35.1-11.2 40.1-13.5 3.4-1.6 6.7-3 7.1-3 .5-.1 4.5.8 9 1.9zm-271.2 2.5c9.7 3.8 31.8 10 46.4 12.9 32 6.4 62.6 9.2 91.5 8.2 23.3-.7 26-.9 46.2-3.7 8.1-1.1 15.2-1.8 15.8-1.4.5.3 1 1.3 1 2.1s2.8 4.5 6.3 8.2c6.7 7.1 16.7 21.4 20.9 29.7 3.5 6.8 7.5 18.3 10.1 28.5 1.8 7.4 2 10.7 1.7 25-.8 38.7-.3 43.5 5.8 55.3 5.7 11.1 12.6 15 26.1 14.9 7.7-.1 9.2-.5 16.7-4.1 29.2-14 45.3-35.4 45.4-60.3 0-3.7.4-6.9.9-7.2 1.1-.7 11 6.6 17.7 13.1 14 13.6 24.9 35.6 29 58.3 2.2 12.4 2 31.5-.6 43.1-2.5 11.8-14.3 36.2-16.3 33.9-.2-.3-2.3-4.5-4.6-9.4-5.4-11.1-16.2-22.6-26-27.5-18.1-9.2-37.8-9.5-68.1-1.2-21.9 6-36.6 8.1-57.7 8.1-24.3 0-44.5-3.7-65.2-12-51.3-20.4-88.8-55.2-102.2-94.7-5.4-16.2-7-26-7.5-47.8-.5-16.7-.3-20.9 1.1-25.5 2.8-9.5 2.9-10.6.6-12.9-3.2-3.2-8.4-2.8-11 .8-2.1 2.9-5.1 12.8-5.1 16.8 0 2.5-3.2 4.9-13.5 10.1-21.3 10.6-35.2 11.1-48 1.4-16.6-12.6-13.9-38.2 5.4-50.4 5.7-3.6 28.5-14.8 30.2-14.8.3 0 3.4 1.1 7 2.5z"/><path fill="#254873" d="M221.2 276.926c-6.3 2.2-9.5 5-12.2 10.6-3.8 7.9-1.8 17.7 5.1 24.1 12.9 11.9 34.2 2.5 34.2-15.1-.1-14.9-13.3-24.5-27.1-19.6zM426.5 294.126c-4.5 1.3-10.5 6.7-12.6 11.3-4.7 10.4.5 23.9 10.7 28.2 5.1 2.1 13.3 1.8 18.4-.9 11.8-5.9 14.7-22.2 5.7-32.4-5.5-6.3-14-8.7-22.2-6.2zM294.3 314.826c-5.4.9-1.1 5.3 11.2 11.6 11.3 5.7 11.9 6.4 11.3 12.7-.5 4.7-1 5.8-4.8 9.1-15.4 13.7-40.3 8.9-42.6-8.2-1-7.4-4.3-10-8-6.3-2.9 2.9-1.2 12.3 3.3 19.2 3.1 4.6 5 6.2 10.7 9.1 6.3 3.2 7.6 3.5 15.5 3.5 9.6-.1 15.8-2.2 24.4-8.2 2.6-1.8 4.9-3.3 5.2-3.3.3 0 2.9 1.8 5.7 4.1 10.1 8 20.8 11.9 32.4 11.9 9.2 0 16.6-2.6 22.8-8.2 9.6-8.4 12.7-21.8 5.1-21.8-2.7 0-3.9 1.3-5.5 6.3-5.7 17.9-33.1 19.5-50.2 2.9-4.4-4.2-4.8-5-4.8-9.3 0-2.8.6-5.4 1.4-6.2.8-.7 4.7-2.4 8.8-3.6 15.2-4.6 18.4-6.1 17.5-8.3-1-2.8-25-6.3-47.7-7.1-5.2-.2-10.5-.1-11.7.1z"/><path stroke="#E58B9C" stroke-linecap="round" stroke-width="9" d="M461.818 325.934l61.091-8.727M462.868 342.926l61.033 5.232M460.666 363.127l56.435 18.233M190.695 313.541l-60.18-12.211M126.309 331.342l63.008-2.625M130.255 360.557l58.276-14.787"/><rect width="393" height="243" x="102" y="383" fill="#C4C4C4" stroke="#000" stroke-width="14" rx="26"/><circle cx="298.5" cy="504.5" r="32.5" fill="#fff" stroke="#000" stroke-width="10"/><rect width="108.571" height="35" x="381.487" y="403" fill="#fff" rx="7" transform="rotate(26.262 381.487 403)"/><path fill="red" fill-rule="evenodd" d="M453.649 442.589c2.226 1.098 3.834 2.999 4.529 5.352.686 2.325.421 4.909-.747 7.275-1.202 2.436-3.21 4.218-6.321 5.607-2.782 1.242-6.343 2.14-10.466 3.179h-.001l-.035.009c-1.4.353-2.985.753-4.641 1.193a1.88 1.88 0 01-1.32-.132 1.88 1.88 0 01-.908-.968 380.433 380.433 0 00-1.89-4.439l-.001-.001c-1.684-3.906-3.138-7.278-3.845-10.243-.79-3.314-.599-5.991.603-8.427 1.168-2.366 3.057-4.149 5.32-5.019 2.29-.881 4.777-.761 7.003.337 1.664.821 2.928 2.098 3.758 3.797.419.857.717 1.8.889 2.814a10.295 10.295 0 012.774-1.007c1.852-.375 3.636-.148 5.299.673zm-74.262-7.639l.962-1.949c-2.724-1.188-3.253-2.283-2.053-4.715.239-.484.491-.732.73-.968.216-.213.422-.416.599-.774.786-1.593.517-3.003-.517-4.922 2.234-.461 3.486-1.095 4.241-2.625.167-.34.19-.615.215-.902.026-.316.054-.648.276-1.098 1.22-2.473 2.411-2.72 5.032-1.27l.962-1.95c-3.963-2.112-6.208-1.577-8.028 2.113-.294.594-.387 1.115-.463 1.541-.052.294-.097.544-.194.741-.476.964-1.718 1.421-4.966 2.034 1.562 2.751 1.987 4.004 1.449 5.094-.04.08-.183.254-.369.479-.345.419-.839 1.018-1.095 1.536-1.81 3.668-.868 5.775 3.219 7.635zm11.994-3.309c-1.362-.673-2.187-.428-2.818.851-.631 1.279-.323 2.082 1.039 2.755 1.363.672 2.188.427 2.819-.852.631-1.278.323-2.082-1.04-2.754zm9.771 7.062c.631-1.278 1.455-1.523 2.818-.851 1.363.672 1.67 1.476 1.039 2.755-.631 1.278-1.456 1.523-2.818.851-1.363-.672-1.67-1.476-1.039-2.755zm15.406 5.36c-1.362-.672-2.187-.427-2.818.852-.631 1.278-.324 2.082 1.039 2.754 1.363.673 2.187.428 2.818-.851.631-1.279.324-2.082-1.039-2.755zm45.414 25.589c-1.81 3.668-4.055 4.203-8.018 2.091l.962-1.95c2.6 1.44 3.791 1.193 4.991-1.239.239-.484.282-.835.324-1.168.037-.301.073-.588.25-.947.786-1.593 2.069-2.237 4.22-2.583-.993-2.054-1.251-3.433-.496-4.963.167-.34.371-.526.585-.72.235-.213.481-.437.703-.887 1.22-2.474.692-3.568-2.054-4.767l.962-1.949c4.087 1.86 5.029 3.967 3.208 7.656-.293.595-.65.986-.941 1.305-.202.221-.373.408-.47.606-.476.964-.083 2.227 1.407 5.178-3.134.434-4.386.859-4.924 1.949-.04.081-.091.3-.156.584l-.001.001c-.122.529-.296 1.285-.552 1.803z" clip-rule="evenodd"/></svg>